# xmcd CD database file
#
# Track frame offsets:
#	150
#	60161
#	118804
#	182172
#	241264
#
# Disc length: 4072 seconds
#
# Revision: 0
# Processed by: cddbd v1.5.2PL0 Copyright (c) Steve Scherf et al.
# Submitted via: CDex 1.51
#
DISCID=3a0fe605
DTITLE=Tom Kenyon - Mary Magdalen Energy Meditations
DYEAR=2003
DGENRE=New Age
TTITLE0=Sending Sekhem to the Top of the Head
TTITLE1=Bringing Our Attention to the Djed
TTITLE2=Moving Sekhem into the Center of the Brain
TTITLE3=The Raising of the Singel Serpent
TTITLE4=The Two Serpents
EXTD=YEAR: 2003
EXTT0=
EXTT1=
EXTT2=
EXTT3=
EXTT4=
PLAYORDER=
